# Blender v3.0.0 OBJ File: 'Bath.blend'
# www.blender.org
o Cube_Cube.001
v -2.598501 -0.049813 1.806972
v -2.421664 0.127024 1.630135
v -2.598501 -0.049813 -1.729760
v -2.421664 0.127024 -1.552924
v 2.706597 -0.049813 1.806972
v 2.529760 0.127024 1.630135
v 2.706597 -0.049813 -1.729760
v 2.529760 0.127024 -1.552924
v -2.598501 0.127024 1.806972
v -2.598501 0.127024 -1.729760
v 2.706597 0.127024 -1.729760
v 2.706597 0.127024 1.806972
v -2.598501 1.895390 1.806972
v -2.598501 1.895390 -1.729760
v 2.706597 1.895390 -1.729760
v 2.706597 1.895390 1.806972
v -2.421664 1.895390 1.630135
v -2.421664 1.895390 -1.552924
v 2.529760 1.895390 -1.552924
v 2.529760 1.895390 1.630135
vt 0.375000 0.000000
vt 0.625000 0.000000
vt 0.625000 0.250000
vt 0.375000 0.250000
vt 0.625000 0.500000
vt 0.375000 0.500000
vt 0.625000 0.750000
vt 0.375000 0.750000
vt 0.625000 1.000000
vt 0.375000 1.000000
vt 0.125000 0.500000
vt 0.125000 0.750000
vt 0.633333 0.512500
vt 0.866667 0.512500
vt 0.866667 0.737500
vt 0.633333 0.737500
vt 0.625000 0.500000
vt 0.625000 0.750000
vt 0.866667 0.512500
vt 0.866667 0.737500
vt 0.633333 0.737500
vt 0.633333 0.512500
vt 0.625000 0.250000
vt 0.875000 0.500000
vt 0.875000 0.750000
vt 0.625000 0.000000
vt 0.625000 1.000000
vn -1.0000 0.0000 0.0000
vn 0.0000 0.0000 -1.0000
vn 1.0000 0.0000 0.0000
vn 0.0000 0.0000 1.0000
vn 0.0000 -1.0000 0.0000
vn 0.0000 1.0000 0.0000
s off
f 1/1/1 9/2/1 10/3/1 3/4/1
f 3/4/2 10/3/2 11/5/2 7/6/2
f 7/6/3 11/5/3 12/7/3 5/8/3
f 5/8/4 12/7/4 9/9/4 1/10/4
f 3/11/5 7/6/5 5/8/5 1/12/5
f 8/13/6 4/14/6 2/15/6 6/16/6
f 12/7/3 11/5/3 15/17/3 16/18/3
f 2/15/3 4/14/3 18/19/3 17/20/3
f 8/13/1 6/16/1 20/21/1 19/22/1
f 11/5/2 10/3/2 14/23/2 15/17/2
f 17/20/6 18/19/6 14/24/6 13/25/6
f 18/19/6 19/22/6 15/17/6 14/24/6
f 19/22/6 20/21/6 16/18/6 15/17/6
f 20/21/6 17/20/6 13/25/6 16/18/6
f 6/16/2 2/15/2 17/20/2 20/21/2
f 4/14/4 8/13/4 19/22/4 18/19/4
f 10/3/1 9/2/1 13/26/1 14/23/1
f 9/9/4 12/7/4 16/18/4 13/27/4
